<?xml version="1.0" standalone="no"?>
<!DOCTYPE svg PUBLIC "-//W3C//DTD SVG 20010904//EN"
 "http://www.w3.org/TR/2001/REC-SVG-20010904/DTD/svg10.dtd">
<svg version="1.0" xmlns="http://www.w3.org/2000/svg"
 width="128.000000pt" height="128.000000pt" viewBox="0 0 128.000000 128.000000"
 preserveAspectRatio="xMidYMid meet">

<g transform="translate(0.000000,128.000000) scale(0.100000,-0.100000)"
fill="#000000" stroke="none">
<path d="M204 1268 c-29 -14 -44 -50 -44 -107 0 -66 27 -101 80 -101 53 0 80
35 80 101 0 59 -15 93 -47 108 -29 13 -41 13 -69 -1z"/>
<path d="M1032 1213 c-74 -36 -104 -137 -62 -211 62 -110 222 -107 275 4 22
46 16 124 -12 162 -42 58 -134 78 -201 45z m158 -97 c0 -15 -91 -96 -107 -96
-16 0 -65 58 -59 69 10 16 27 14 48 -6 18 -16 20 -15 51 15 33 33 67 42 67 18z"/>
<path d="M800 880 l0 -220 -62 0 -61 0 21 23 c24 26 29 57 9 57 -18 0 -97 -82
-97 -101 0 -18 80 -99 98 -99 19 0 14 32 -10 57 l-21 23 61 0 62 0 2 -217 3
-218 63 -3 c57 -3 62 -1 62 18 0 17 -6 20 -50 20 l-50 0 0 200 0 200 45 0 c38
0 45 3 45 20 0 17 -7 20 -45 20 l-45 0 0 200 0 200 50 0 c43 0 50 3 50 20 0
18 -7 20 -65 20 l-65 0 0 -220z"/>
<path d="M45 945 c-25 -24 -25 -26 -25 -203 0 -152 2 -182 16 -193 11 -9 20
-10 32 -2 14 8 18 31 20 124 1 62 7 118 13 124 18 18 29 -17 29 -97 l0 -78
115 0 114 0 3 88 c2 69 6 87 18 87 12 0 16 -22 20 -119 4 -96 8 -121 22 -129
12 -8 21 -7 32 2 13 11 16 40 16 183 0 217 -9 238 -99 238 -30 0 -44 -8 -76
-40 -21 -22 -44 -40 -50 -40 -6 0 -29 18 -50 40 -34 35 -45 40 -82 40 -33 0
-50 -6 -68 -25z"/>
<path d="M1032 773 c-74 -36 -104 -137 -62 -211 62 -110 222 -107 275 4 22 46
16 124 -12 162 -42 58 -134 78 -201 45z m158 -97 c0 -15 -91 -96 -107 -96 -16
0 -65 58 -59 69 10 16 27 14 48 -6 18 -16 20 -15 51 15 33 33 67 42 67 18z"/>
<path d="M135 328 c3 -139 8 -267 11 -285 5 -33 28 -48 57 -37 15 5 17 36 19
257 3 231 4 252 21 255 16 3 17 -13 17 -238 0 -248 5 -280 39 -280 41 0 40 -7
56 433 l6 147 -116 0 -116 0 6 -252z"/>
<path d="M1030 341 c-74 -39 -100 -140 -57 -215 31 -54 78 -78 144 -73 95 7
151 76 140 172 -12 108 -129 168 -227 116z m160 -95 c0 -16 -88 -96 -106 -96
-17 0 -67 57 -60 69 10 16 36 13 42 -4 9 -22 22 -19 61 15 36 32 63 39 63 16z"/>
</g>
</svg>
