<?xml version="1.0" standalone="no"?>
<!DOCTYPE svg PUBLIC "-//W3C//DTD SVG 20010904//EN"
 "http://www.w3.org/TR/2001/REC-SVG-20010904/DTD/svg10.dtd">
<svg version="1.0" xmlns="http://www.w3.org/2000/svg"
 width="128.000000pt" height="128.000000pt" viewBox="0 0 128.000000 128.000000"
 preserveAspectRatio="xMidYMid meet">
<metadata>
Created by potrace 1.16, written by Peter Selinger 2001-2019
</metadata>
<g transform="translate(0.000000,128.000000) scale(0.100000,-0.100000)"
fill="#000000" stroke="none">
<path d="M7 1253 c-4 -3 -7 -235 -7 -514 0 -492 1 -509 19 -519 12 -6 101 -10
221 -10 167 0 201 -2 197 -14 -3 -7 -11 -39 -18 -70 l-14 -56 -48 0 c-44 0
-48 -2 -45 -22 l3 -23 325 0 325 0 3 22 c3 19 -2 22 -44 25 l-46 3 -19 60
c-10 33 -19 63 -19 68 0 4 91 7 203 7 147 0 208 3 220 13 16 11 17 51 15 522
l-3 510 -631 3 c-347 1 -634 -1 -637 -5z m1221 -420 l2 -373 -590 0 -590 0 0
368 c0 203 3 372 7 375 3 4 268 6 587 5 l581 -3 3 -372z m2 -498 l0 -65 -590
0 -590 0 0 65 0 65 590 0 590 0 0 -65z m-428 -190 c10 -33 18 -63 18 -67 0 -5
-81 -8 -181 -8 -167 0 -180 1 -175 18 3 9 10 37 16 62 7 25 14 48 17 53 2 4
68 6 146 5 l141 -3 18 -60z"/>
<path d="M515 1055 c-49 -20 -117 -45 -150 -56 -120 -42 -128 -63 -39 -99 l54
-22 0 -134 0 -133 73 -23 c94 -30 277 -30 377 -2 l65 19 3 136 c3 135 3 136
28 148 14 6 27 11 29 11 3 0 5 -54 5 -119 0 -132 4 -151 30 -151 27 0 30 19
30 176 0 168 8 156 -136 205 -49 16 -120 41 -159 54 -38 14 -81 24 -95 24 -14
0 -65 -15 -115 -34z m271 -64 l128 -49 -76 -35 c-41 -19 -101 -43 -133 -53
l-57 -18 -82 28 c-44 15 -99 36 -121 46 -22 10 -49 21 -60 25 -15 5 13 19 110
55 72 27 137 49 146 49 9 1 74 -21 145 -48z m-224 -182 l77 -31 103 40 103 39
3 -44 c2 -25 1 -47 -1 -49 -2 -3 -37 -12 -78 -20 -82 -18 -211 -15 -291 6
l-48 12 0 48 c0 48 0 49 28 40 15 -5 62 -23 104 -41z m78 -124 c69 0 144 4
168 9 41 8 42 8 42 -17 0 -38 -56 -52 -210 -52 -154 0 -210 14 -210 52 0 25 1
25 43 17 23 -5 98 -9 167 -9z"/>
</g>
</svg>
