<?xml version="1.0" standalone="no"?>
<!DOCTYPE svg PUBLIC "-//W3C//DTD SVG 20010904//EN"
 "http://www.w3.org/TR/2001/REC-SVG-20010904/DTD/svg10.dtd">
<svg version="1.0" xmlns="http://www.w3.org/2000/svg"
 width="128.000000pt" height="128.000000pt" viewBox="0 0 128.000000 128.000000"
 preserveAspectRatio="xMidYMid meet">

<g transform="translate(0.000000,128.000000) scale(0.100000,-0.100000)"
fill="#000000" stroke="none">
<path d="M272 1187 c-20 -21 -22 -34 -22 -148 0 -172 -3 -169 187 -169 158 0
153 -2 153 76 0 43 1 44 33 44 43 0 67 26 67 73 0 46 -29 77 -70 77 -23 0 -30
5 -30 19 0 50 -3 51 -154 51 -136 0 -144 -1 -164 -23z m269 -44 c1 -16 1 -31
0 -35 0 -5 19 -8 43 -8 50 0 71 -18 62 -54 -5 -22 -13 -25 -54 -28 l-47 -3 -3
-52 -3 -53 -118 0 c-78 0 -121 4 -129 12 -8 8 -12 49 -12 120 0 91 3 108 18
117 9 6 68 11 130 11 l112 0 1 -27z"/>
<path d="M370 820 c0 -13 7 -20 20 -20 13 0 20 7 20 20 0 13 -7 20 -20 20 -13
0 -20 -7 -20 -20z"/>
<path d="M460 820 c0 -11 7 -20 15 -20 8 0 15 9 15 20 0 11 -7 20 -15 20 -8 0
-15 -9 -15 -20z"/>
<path d="M590 780 l0 -60 33 0 c43 0 76 -32 58 -54 -7 -8 -29 -16 -49 -18
l-37 -3 -3 -52 -3 -53 -70 0 -70 0 22 33 c12 17 39 50 60 72 26 27 36 44 30
53 -7 12 -14 11 -40 -2 l-31 -17 0 41 c0 29 -4 40 -15 40 -12 0 -15 -15 -15
-75 0 -73 -1 -75 -25 -75 -23 0 -25 4 -25 41 0 37 -2 40 -24 37 -13 -1 -35 4
-50 11 -19 11 -29 12 -38 3 -8 -8 7 -30 55 -84 l66 -73 -69 -3 -70 -3 0 -149
0 -149 26 -20 c26 -20 39 -21 293 -21 265 0 266 0 294 24 l27 23 0 262 c0 266
-3 290 -39 318 -11 8 -61 12 -153 13 l-138 0 0 -60z m278 8 c8 -8 12 -52 12
-130 l0 -118 -40 0 c-39 0 -40 -1 -40 -35 0 -51 -19 -85 -47 -85 -27 0 -43 32
-43 86 0 34 0 34 -45 34 -45 0 -45 0 -45 35 0 33 2 35 32 35 41 0 78 34 78 72
0 37 -43 78 -81 78 -22 0 -29 5 -29 20 0 19 7 20 118 20 78 0 122 -4 130 -12z
m-288 -307 c0 -15 -10 -21 -39 -26 -63 -11 -89 -68 -55 -120 13 -20 25 -25 60
-25 44 0 44 0 44 -35 l0 -35 -135 0 -135 0 0 130 0 130 130 0 c121 0 130 -1
130 -19z m93 -21 c8 -58 21 -70 80 -70 59 0 76 16 77 73 0 33 3 37 25 37 l26
0 -3 -127 -3 -128 -127 -3 -128 -3 0 55 0 55 -52 3 c-49 3 -53 5 -53 28 0 23
5 25 50 30 l50 5 3 43 c3 36 6 42 26 42 20 0 24 -6 29 -40z"/>
<path d="M370 740 c0 -13 7 -20 20 -20 13 0 20 7 20 20 0 13 -7 20 -20 20 -13
0 -20 -7 -20 -20z"/>
</g>
</svg>
