<?xml version="1.0" standalone="no"?>
<!DOCTYPE svg PUBLIC "-//W3C//DTD SVG 20010904//EN"
 "http://www.w3.org/TR/2001/REC-SVG-20010904/DTD/svg10.dtd">
<svg version="1.0" xmlns="http://www.w3.org/2000/svg"
 width="128.000000pt" height="128.000000pt" viewBox="0 0 128.000000 128.000000"
 preserveAspectRatio="xMidYMid meet">

<g transform="translate(0.000000,128.000000) scale(0.100000,-0.100000)"
fill="#000000" stroke="none">
<path d="M510 1194 c-161 -31 -306 -101 -429 -205 l-83 -71 63 -64 63 -64 51
49 c70 69 159 123 256 156 75 25 98 29 209 29 111 0 134 -4 209 -29 97 -33
186 -87 256 -156 l51 -49 63 64 63 64 -83 71 c-164 140 -322 201 -534 206 -71
2 -141 1 -155 -1z m300 -69 c124 -29 227 -79 332 -164 53 -42 56 -47 41 -63
-21 -24 -36 -23 -59 4 -26 29 -138 100 -199 125 -94 40 -176 55 -285 55 -109
0 -191 -15 -285 -55 -61 -25 -173 -96 -199 -125 -23 -27 -38 -28 -59 -4 -15
16 -12 21 41 63 104 84 193 129 317 160 89 22 266 24 355 4z"/>
<path d="M495 996 c-114 -26 -257 -108 -335 -190 l-24 -27 61 -61 62 -62 48
45 c102 95 193 131 333 131 139 0 247 -43 345 -139 l37 -36 61 61 62 62 -52
49 c-64 61 -167 123 -253 152 -83 27 -257 35 -345 15z m342 -76 c58 -20 142
-70 203 -119 l25 -20 -20 -21 -21 -20 -54 41 c-108 81 -195 110 -330 110 -134
0 -222 -29 -330 -110 -50 -38 -55 -40 -72 -24 -10 9 -18 19 -18 23 0 12 114
92 165 116 94 44 152 54 275 50 86 -3 131 -9 177 -26z"/>
<path d="M555 813 c-89 -21 -213 -91 -262 -147 l-21 -24 58 -57 59 -58 37 33
c128 112 286 113 420 4 l45 -37 55 54 c29 29 54 59 54 65 0 17 -96 97 -146
122 -83 42 -222 63 -299 45z m247 -85 c32 -15 73 -39 92 -54 33 -26 34 -30 19
-46 -20 -22 -37 -23 -54 -2 -22 26 -104 63 -163 72 -95 15 -233 -21 -275 -72
-17 -21 -34 -20 -54 2 -15 16 -14 19 16 43 82 66 157 90 272 86 72 -2 101 -8
147 -29z"/>
<path d="M580 621 c-214 -44 -288 -325 -123 -471 179 -157 456 -33 456 205 0
116 -61 206 -168 249 -66 26 -101 30 -165 17z m182 -86 c53 -37 98 -120 98
-180 0 -60 -45 -143 -98 -180 -40 -27 -51 -30 -122 -30 -71 0 -82 3 -122 30
-53 37 -98 120 -98 179 0 82 63 173 140 205 14 6 55 10 92 8 56 -2 75 -8 110
-32z"/>
<path d="M605 510 c-72 -16 -125 -83 -125 -157 1 -160 219 -216 297 -77 69
120 -38 265 -172 234z m108 -90 c52 -58 24 -148 -52 -165 -90 -20 -157 87
-100 159 43 54 105 57 152 6z"/>
</g>
</svg>
