<?xml version="1.0" standalone="no"?>
<!DOCTYPE svg PUBLIC "-//W3C//DTD SVG 20010904//EN"
 "http://www.w3.org/TR/2001/REC-SVG-20010904/DTD/svg10.dtd">
<svg version="1.0" xmlns="http://www.w3.org/2000/svg"
 width="128.000000pt" height="128.000000pt" viewBox="0 0 128.000000 128.000000"
 preserveAspectRatio="xMidYMid meet">

<g transform="translate(0.000000,128.000000) scale(0.100000,-0.100000)"
fill="#000000" stroke="none">
<path d="M0 940 l0 -340 190 0 190 0 0 -75 0 -75 225 0 225 0 0 -225 0 -225
225 0 225 0 0 248 c0 227 -2 251 -21 292 -11 25 -30 56 -42 68 -28 30 -89 62
-119 62 -20 1 -18 3 12 19 62 33 83 65 88 130 4 56 3 60 -33 100 -51 56 -99
70 -160 47 -116 -45 -129 -201 -23 -266 l33 -20 -92 0 -93 0 0 300 0 300 -415
0 -415 0 0 -340z m750 0 l0 -260 -158 0 -157 0 -93 93 -92 93 28 27 28 27 54
-55 54 -55 93 92 c85 85 93 90 93 65 0 -25 3 -27 40 -27 l40 0 0 95 0 95 -95
0 -95 0 0 -40 c0 -37 2 -40 27 -40 26 0 24 -3 -37 -65 l-64 -65 -56 55 -56 55
-68 -69 c-55 -56 -67 -73 -58 -84 9 -10 9 -16 0 -25 -10 -10 6 -30 67 -92 l80
-80 -123 0 -122 0 0 260 0 260 335 0 335 0 0 -260z m358 -58 c16 -11 22 -24
22 -51 -1 -51 -21 -73 -69 -75 -70 -1 -104 57 -65 112 29 42 62 46 112 14z
m-88 -392 l0 -110 35 0 35 0 0 111 0 111 32 -19 c18 -11 43 -34 55 -53 22 -32
23 -42 23 -241 l0 -209 -145 0 -145 0 -2 223 -3 222 -222 3 -223 2 0 35 0 35
280 0 280 0 0 -110z"/>
</g>
</svg>
