<?xml version="1.0" standalone="no"?>
<!DOCTYPE svg PUBLIC "-//W3C//DTD SVG 20010904//EN"
 "http://www.w3.org/TR/2001/REC-SVG-20010904/DTD/svg10.dtd">
<svg version="1.0" xmlns="http://www.w3.org/2000/svg"
 width="128.000000pt" height="128.000000pt" viewBox="0 0 128.000000 128.000000"
 preserveAspectRatio="xMidYMid meet">
<metadata>
Created by potrace 1.16, written by Peter Selinger 2001-2019
</metadata>
<g transform="translate(0.000000,128.000000) scale(0.100000,-0.100000)"
fill="#000000" stroke="none">
<path d="M585 1271 c-27 -12 -62 -52 -67 -76 -2 -15 -12 -21 -38 -23 -39 -4
-86 -34 -95 -61 -5 -16 -19 -19 -88 -23 -95 -5 -124 -19 -138 -68 -6 -22 -9
-204 -7 -503 l3 -469 28 -24 28 -24 429 0 429 0 28 24 28 24 3 469 c2 299 -1
481 -7 503 -14 49 -43 63 -138 68 -69 4 -83 7 -88 23 -10 30 -55 59 -91 59
-27 0 -35 5 -40 24 -11 43 -58 78 -111 82 -26 2 -57 0 -68 -5z m243 -167 c19
-13 22 -24 22 -80 l0 -64 -210 0 -210 0 0 64 c0 94 4 96 210 96 134 0 170 -3
188 -16z m-458 -89 c0 -11 -11 -15 -39 -15 -26 0 -41 -5 -45 -16 -8 -20 -8
-818 0 -838 5 -14 46 -16 354 -16 308 0 349 2 354 16 8 20 8 818 0 838 -4 11
-19 16 -45 16 -28 0 -39 4 -39 15 0 12 14 15 68 15 37 0 73 -4 80 -8 10 -7 12
-110 10 -483 l-3 -474 -425 0 -425 0 -3 474 c-2 373 0 476 10 483 7 4 43 8 81
8 53 0 67 -3 67 -15z m8 -85 c12 -19 23 -20 262 -20 239 0 250 1 262 20 7 11
18 20 25 20 10 0 13 -82 13 -385 l0 -385 -300 0 -300 0 0 385 c0 303 3 385 13
385 7 0 18 -9 25 -20z"/>
<path d="M686 570 c-65 -44 -122 -80 -125 -80 -3 0 -23 27 -44 60 -25 41 -43
60 -57 60 -13 0 -20 -7 -20 -20 0 -24 85 -159 105 -166 7 -3 74 35 152 88 100
67 139 99 141 116 6 39 -28 26 -152 -58z"/>
</g>
</svg>
