<?xml version="1.0" standalone="no"?>
<!DOCTYPE svg PUBLIC "-//W3C//DTD SVG 20010904//EN"
 "http://www.w3.org/TR/2001/REC-SVG-20010904/DTD/svg10.dtd">
<svg version="1.0" xmlns="http://www.w3.org/2000/svg"
 width="128.000000pt" height="128.000000pt" viewBox="0 0 128.000000 128.000000"
 preserveAspectRatio="xMidYMid meet">
<metadata>
Created by potrace 1.16, written by Peter Selinger 2001-2019
</metadata>
<g transform="translate(0.000000,128.000000) scale(0.100000,-0.100000)"
fill="#000000" stroke="none">
<path d="M5 1167 c-3 -7 -4 -78 -3 -157 l3 -145 135 0 135 0 0 155 0 155 -133
3 c-103 2 -134 0 -137 -11z m135 -87 c39 0 49 4 72 32 l27 33 1 -122 0 -123
-100 0 -100 0 0 123 1 122 27 -33 c23 -28 33 -32 72 -32z"/>
<path d="M545 1141 c-81 -37 -105 -90 -105 -228 0 -124 11 -161 60 -211 22
-22 40 -45 40 -51 0 -7 -34 -11 -105 -11 -155 0 -192 21 -214 120 -11 47 -40
80 -73 80 -32 0 -68 -45 -68 -84 0 -55 36 -138 78 -179 39 -38 123 -77 165
-77 22 0 23 -3 19 -68 -2 -38 -11 -80 -21 -97 -23 -41 -77 -75 -118 -75 -39 0
-83 -37 -83 -70 0 -11 12 -33 26 -47 23 -23 31 -25 78 -20 67 7 143 45 184 91
l31 36 3 -73 c2 -56 6 -72 18 -72 13 0 15 24 15 155 0 130 -2 155 -15 155 -9
0 -17 -15 -22 -42 -9 -53 -39 -111 -75 -145 -59 -56 -166 -86 -193 -53 -17 20
3 45 37 45 30 0 91 25 117 48 31 28 56 93 56 150 0 93 55 166 135 179 27 4 41
1 58 -14 29 -26 106 -26 136 1 15 14 30 17 56 13 80 -13 135 -86 135 -179 0
-57 25 -122 56 -150 26 -23 87 -48 117 -48 34 0 54 -25 37 -45 -28 -34 -146 2
-202 61 -35 38 -68 110 -68 152 0 25 -4 32 -20 32 -20 0 -20 -5 -18 -157 3
-133 5 -158 18 -158 12 0 16 16 18 72 l3 73 31 -36 c41 -46 117 -84 184 -91
47 -5 55 -3 78 20 14 14 26 36 26 47 0 33 -44 70 -83 70 -41 0 -95 34 -118 75
-10 17 -19 59 -21 98 -4 64 -3 67 19 67 42 0 126 39 165 77 42 41 78 124 78
179 0 39 -36 84 -68 84 -33 0 -62 -33 -73 -80 -22 -99 -59 -120 -214 -120 -71
0 -105 4 -105 11 0 6 18 29 40 51 51 51 63 96 58 219 -3 87 -6 100 -27 123
-14 14 -30 26 -37 26 -8 0 -14 16 -16 43 l-3 42 -85 2 c-66 2 -94 -1 -125 -16z
m175 -57 c0 -30 4 -37 30 -46 31 -10 50 -34 50 -64 0 -13 -3 -14 -14 -5 -11 9
-28 9 -75 0 -49 -10 -76 -11 -132 -1 -54 9 -75 10 -85 1 -22 -18 -18 40 6 79
32 52 74 72 153 72 l67 0 0 -36z m-100 -161 c36 -3 82 -1 102 5 29 8 41 7 58
-5 20 -14 22 -23 18 -77 -3 -44 -10 -71 -27 -94 -27 -39 -88 -72 -131 -72 -43
0 -104 33 -131 72 -17 23 -24 50 -27 94 -4 55 -2 63 19 78 13 9 31 14 39 10 8
-3 44 -8 80 -11z m-453 -135 c6 -7 13 -30 16 -51 13 -83 84 -137 180 -137 l55
0 -26 -30 c-20 -23 -35 -30 -62 -30 -99 1 -209 108 -210 206 0 44 27 68 47 42z
m981 0 c29 -29 0 -128 -54 -182 -37 -37 -99 -66 -144 -66 -27 0 -42 7 -62 30
l-26 30 55 0 c96 0 167 54 180 137 9 57 27 75 51 51z"/>
<path d="M964 1107 c-2 -7 -3 -56 -2 -108 l3 -94 155 0 155 0 0 105 0 105
-153 3 c-121 2 -154 0 -158 -11z"/>
<path d="M1044 487 c-2 -7 -3 -56 -2 -108 l3 -94 75 0 75 0 0 105 0 105 -73 3
c-54 2 -74 -1 -78 -11z"/>
<path d="M64 467 c-3 -8 -4 -52 -2 -98 l3 -84 73 -3 c66 -3 74 -1 79 17 3 12
15 21 32 23 25 3 26 6 26 58 0 52 -1 55 -26 58 -17 2 -29 11 -32 23 -4 17 -14
19 -76 19 -51 0 -73 -4 -77 -13z"/>
</g>
</svg>
