<?xml version="1.0" standalone="no"?>
<!DOCTYPE svg PUBLIC "-//W3C//DTD SVG 20010904//EN"
 "http://www.w3.org/TR/2001/REC-SVG-20010904/DTD/svg10.dtd">
<svg version="1.0" xmlns="http://www.w3.org/2000/svg"
 width="128.000000pt" height="128.000000pt" viewBox="0 0 128.000000 128.000000"
 preserveAspectRatio="xMidYMid meet">

<g transform="translate(0.000000,128.000000) scale(0.100000,-0.100000)"
fill="#000000" stroke="none">
<path d="M523 1260 c-4 -15 -14 -20 -38 -20 -38 0 -56 -18 -49 -46 4 -15 -2
-23 -20 -32 -44 -20 -107 -84 -133 -136 -18 -36 -28 -72 -31 -123 -4 -60 -8
-74 -24 -79 -16 -5 -19 -14 -16 -62 l3 -57 38 -3 37 -3 0 -134 c0 -164 19
-239 80 -308 l40 -45 0 -106 c0 -99 1 -106 20 -106 18 0 20 7 20 86 0 96 -7
91 80 59 58 -22 162 -22 220 0 87 32 80 37 80 -59 0 -79 2 -86 20 -86 19 0 20
7 20 106 l0 106 40 45 c61 69 80 144 80 308 l0 134 38 3 37 3 3 57 c3 48 0 57
-16 62 -16 5 -20 19 -24 79 -3 51 -13 87 -31 123 -26 52 -89 116 -133 136 -18
9 -24 17 -20 32 7 28 -11 46 -49 46 -24 0 -34 5 -38 20 -5 18 -14 20 -117 20
-103 0 -112 -2 -117 -20z m193 -72 c-3 -29 -11 -111 -16 -183 -15 -182 -13
-175 -60 -175 -47 0 -45 -7 -60 175 -5 72 -13 154 -16 183 l-6 52 82 0 82 0
-6 -52z m-192 -30 c10 -74 26 -260 26 -295 0 -25 -4 -33 -18 -33 -17 0 -20 18
-35 173 -21 210 -21 197 2 197 16 0 21 -9 25 -42z m276 30 c0 -7 -7 -91 -17
-185 -15 -155 -18 -173 -35 -173 -22 0 -22 18 -8 176 17 187 19 194 41 194 10
0 19 -6 19 -12z m-344 -195 c7 -70 14 -136 14 -145 0 -16 -11 -18 -91 -18
l-92 0 5 68 c3 40 13 84 26 108 20 40 110 129 120 120 2 -3 11 -63 18 -133z
m452 83 c49 -45 74 -101 80 -178 l5 -68 -92 0 c-73 0 -91 3 -91 15 0 21 20
215 26 253 6 37 8 37 72 -22z m122 -316 c0 -20 -7 -20 -390 -20 -383 0 -390 0
-390 20 0 20 7 20 390 20 383 0 390 0 390 -20z m-80 -100 c0 -33 -4 -40 -19
-40 -10 0 -21 9 -24 20 -5 19 -14 20 -267 20 -253 0 -262 -1 -267 -20 -3 -11
-14 -20 -24 -20 -15 0 -19 7 -19 40 l0 40 310 0 310 0 0 -40z m-80 -100 l0
-61 -76 3 -76 3 -12 35 c-11 34 -12 35 -66 35 -54 0 -55 -1 -66 -35 l-12 -35
-76 -3 -76 -3 0 61 0 60 230 0 230 0 0 -60z m-500 0 c0 -13 -7 -20 -20 -20
-13 0 -20 7 -20 20 0 13 7 20 20 20 13 0 20 -7 20 -20z m580 0 c0 -13 -7 -20
-20 -20 -13 0 -20 7 -20 20 0 13 7 20 20 20 13 0 20 -7 20 -20z m-277 -55 c17
-54 22 -56 126 -53 89 3 97 5 106 26 14 31 45 29 45 -4 0 -120 -92 -248 -207
-290 -49 -17 -157 -17 -206 0 -115 42 -207 170 -207 290 0 33 31 35 45 4 9
-22 16 -23 109 -23 106 0 105 0 126 58 14 38 50 34 63 -8z"/>
<path d="M560 391 c0 -13 6 -21 17 -21 9 0 27 -10 40 -22 l23 -21 23 21 c13
12 31 22 40 22 11 0 17 8 17 21 0 19 -4 20 -32 15 -18 -4 -40 -7 -48 -7 -8 0
-30 3 -47 7 -29 5 -33 4 -33 -15z"/>
<path d="M471 326 c-10 -12 -3 -20 36 -43 67 -39 168 -44 241 -13 61 27 78 43
59 58 -10 8 -25 5 -62 -13 -66 -34 -144 -34 -211 0 -58 30 -49 28 -63 11z"/>
</g>
</svg>
