<?xml version="1.0" standalone="no"?>
<!DOCTYPE svg PUBLIC "-//W3C//DTD SVG 20010904//EN"
 "http://www.w3.org/TR/2001/REC-SVG-20010904/DTD/svg10.dtd">
<svg version="1.0" xmlns="http://www.w3.org/2000/svg"
 width="128.000000pt" height="128.000000pt" viewBox="0 0 128.000000 128.000000"
 preserveAspectRatio="xMidYMid meet">
<metadata>
Created by potrace 1.16, written by Peter Selinger 2001-2019
</metadata>
<g transform="translate(0.000000,128.000000) scale(0.100000,-0.100000)"
fill="#000000" stroke="none">
<path d="M365 837 c-44 -19 -105 -46 -135 -61 -30 -14 -63 -26 -72 -26 -25 0
-31 17 -8 23 11 3 20 10 20 17 0 14 -107 62 -128 58 -26 -5 -25 -27 1 -39 20
-9 55 -58 45 -63 -2 -1 -16 -8 -31 -16 -41 -20 -57 -59 -57 -134 0 -54 4 -69
22 -86 12 -11 34 -20 49 -20 19 0 30 -6 34 -21 10 -31 64 -59 114 -59 37 0 49
6 83 40 l40 40 274 0 c267 0 273 0 279 -21 10 -31 64 -59 114 -59 38 0 49 5
82 40 36 38 40 39 111 42 l73 3 3 56 c3 61 -16 97 -66 123 -29 15 -178 50
-254 61 -35 4 -60 17 -95 46 -92 77 -111 83 -273 87 l-145 3 -80 -34z m-40
-198 c61 -52 75 -60 105 -57 46 4 47 30 1 39 -19 4 -50 23 -70 43 l-36 36 39
0 c32 0 49 -9 108 -60 l69 -60 135 0 c124 0 135 2 132 18 -3 15 -20 18 -129
22 l-126 5 -42 38 -41 37 219 0 c221 0 326 -11 451 -47 73 -21 74 -22 48 -43
-24 -19 -20 -24 27 -32 12 -2 20 -11 20 -23 0 -17 -8 -20 -52 -23 -43 -2 -53
0 -53 13 0 29 -31 76 -63 95 -78 48 -160 8 -191 -92 -5 -17 -27 -18 -271 -18
-246 0 -265 1 -265 18 0 9 -9 31 -20 49 -45 74 -139 83 -197 19 -18 -20 -33
-45 -33 -55 0 -26 -17 -36 -36 -20 -12 10 -15 27 -12 72 6 79 18 87 127 87
l86 -1 70 -60z m-50 -49 c47 -47 6 -140 -62 -140 -95 0 -113 129 -23 163 23 9
63 -2 85 -23z m789 0 c28 -28 26 -83 -4 -115 -50 -53 -140 -16 -140 57 1 78
89 113 144 58z"/>
</g>
</svg>
