<?xml version="1.0" standalone="no"?>
<!DOCTYPE svg PUBLIC "-//W3C//DTD SVG 20010904//EN"
 "http://www.w3.org/TR/2001/REC-SVG-20010904/DTD/svg10.dtd">
<svg version="1.0" xmlns="http://www.w3.org/2000/svg"
 width="128.000000pt" height="128.000000pt" viewBox="0 0 128.000000 128.000000"
 preserveAspectRatio="xMidYMid meet">
<metadata>
Created by potrace 1.16, written by Peter Selinger 2001-2019
</metadata>
<g transform="translate(0.000000,128.000000) scale(0.100000,-0.100000)"
fill="#000000" stroke="none">
<path d="M5 1268 c-3 -7 -4 -294 -3 -638 l3 -625 635 0 635 0 0 635 0 635
-633 3 c-501 2 -634 0 -637 -10z m1233 -95 l-3 -68 -595 0 -595 0 -3 68 -3 67
601 0 601 0 -3 -67z m0 -621 l2 -512 -600 0 -600 0 0 508 c0 280 3 512 7 515
3 4 272 6 597 5 l591 -3 3 -513z"/>
<path d="M550 960 c0 -17 7 -20 42 -20 l43 0 -218 -218 c-194 -194 -216 -220
-202 -232 14 -12 41 11 231 201 l214 214 0 -38 c0 -30 4 -37 20 -37 18 0 20 7
20 75 l0 75 -75 0 c-68 0 -75 -2 -75 -20z"/>
<path d="M877 894 c-4 -4 -7 -33 -7 -65 l0 -58 -82 -3 -83 -3 -3 -62 -3 -63
-84 0 -85 0 0 -65 0 -65 -85 0 -85 0 0 -65 0 -65 -85 0 -85 0 0 -105 0 -105
-30 0 c-23 0 -30 -4 -30 -20 0 -20 7 -20 510 -20 503 0 510 0 510 20 0 16 -7
20 -30 20 l-30 0 -2 362 -3 363 -101 3 c-55 1 -103 0 -107 -4z m171 -381 l-3
-338 -62 -3 -63 -3 0 341 0 340 65 0 65 0 -2 -337z m-178 -63 l0 -280 -60 0
-60 0 0 280 0 280 60 0 60 0 0 -280z m-170 -65 l0 -215 -60 0 -60 0 0 215 0
215 60 0 60 0 0 -215z m-170 -65 l0 -150 -60 0 -60 0 0 150 0 150 60 0 60 0 0
-150z m-170 -65 l0 -86 -62 3 -63 3 -3 83 -3 82 66 0 65 0 0 -85z"/>
</g>
</svg>
