<?xml version="1.0" standalone="no"?>
<!DOCTYPE svg PUBLIC "-//W3C//DTD SVG 20010904//EN"
 "http://www.w3.org/TR/2001/REC-SVG-20010904/DTD/svg10.dtd">
<svg version="1.0" xmlns="http://www.w3.org/2000/svg"
 width="128.000000pt" height="128.000000pt" viewBox="0 0 128.000000 128.000000"
 preserveAspectRatio="xMidYMid meet">
<metadata>
Created by potrace 1.16, written by Peter Selinger 2001-2019
</metadata>
<g transform="translate(0.000000,128.000000) scale(0.100000,-0.100000)"
fill="#000000" stroke="none">
<path d="M58 1264 c-57 -31 -58 -36 -58 -479 l0 -405 265 0 265 0 -6 -38 c-3
-20 -11 -75 -17 -122 l-12 -85 -153 -3 -152 -3 0 -64 0 -65 450 0 450 0 0 65
0 64 -152 3 -153 3 -12 85 c-6 47 -14 102 -17 123 l-6 37 265 0 265 0 0 405
c0 445 0 449 -60 480 -43 22 -1121 22 -1162 -1z m1159 -47 c17 -16 18 -49 21
-402 l3 -385 -601 0 -600 0 0 369 c0 219 4 380 10 396 5 14 20 30 32 35 13 5
254 8 570 7 510 -2 548 -3 565 -20z m-498 -914 c6 -43 14 -99 17 -125 l7 -48
-103 0 -103 0 7 48 c3 26 11 82 17 125 l11 77 68 0 68 0 11 -77z m326 -238 c0
-20 -8 -20 -399 -23 -241 -1 -404 2 -409 7 -5 5 -7 17 -4 25 6 15 50 16 409
14 395 -3 403 -3 403 -23z"/>
<path d="M106 1174 c-14 -13 -16 -56 -16 -320 l0 -304 550 0 550 0 0 298 0
299 -23 21 c-23 22 -23 22 -534 22 -452 0 -513 -2 -527 -16z m1032 -36 c9 -9
12 -84 12 -275 l0 -263 -510 0 -510 0 0 268 c0 148 3 272 7 275 3 4 227 7 498
7 368 0 494 -3 503 -12z"/>
<path d="M367 1063 c-4 -3 -7 -42 -7 -85 l0 -78 130 0 130 0 0 85 0 85 -123 0
c-68 0 -127 -3 -130 -7z"/>
<path d="M660 985 l0 -85 130 0 131 0 -3 83 -3 82 -127 3 -128 3 0 -86z"/>
<path d="M360 765 l0 -85 130 0 130 0 0 85 0 85 -130 0 -130 0 0 -85z"/>
<path d="M660 765 l0 -85 130 0 130 0 0 85 0 85 -130 0 -130 0 0 -85z"/>
</g>
</svg>
