<?xml version="1.0" standalone="no"?>
<!DOCTYPE svg PUBLIC "-//W3C//DTD SVG 20010904//EN"
 "http://www.w3.org/TR/2001/REC-SVG-20010904/DTD/svg10.dtd">
<svg version="1.0" xmlns="http://www.w3.org/2000/svg"
 width="128.000000pt" height="128.000000pt" viewBox="0 0 128.000000 128.000000"
 preserveAspectRatio="xMidYMid meet">

<g transform="translate(0.000000,128.000000) scale(0.100000,-0.100000)"
fill="#000000" stroke="none">
<path d="M1185 1201 c-47 -12 -107 -46 -139 -79 l-28 -31 -37 24 c-62 41 -147
65 -231 65 -172 0 -309 -88 -388 -250 -35 -72 -36 -80 -37 -183 l-1 -108 -59
-25 c-33 -13 -61 -24 -62 -24 -2 0 -3 9 -3 19 0 38 -27 51 -104 51 -43 0 -77
-5 -84 -12 -17 -17 -17 -559 0 -576 7 -7 41 -12 84 -12 76 0 104 13 104 49 0
17 16 19 193 24 323 9 561 62 628 138 9 11 19 19 22 19 3 0 21 13 39 30 18 17
37 30 42 30 12 0 117 77 134 98 6 9 12 37 12 62 0 63 -23 85 -81 77 -34 -4
-39 -3 -35 10 34 89 33 237 -3 319 -17 37 -19 50 -9 53 7 2 34 25 59 50 48 48
89 141 76 175 -7 17 -40 19 -92 7z m18 -98 c-26 -49 -81 -92 -128 -100 -38 -6
-38 -6 -31 23 13 50 77 105 146 124 33 9 36 -2 13 -47z m-292 -6 c63 -30 82
-48 77 -71 -2 -12 -12 -9 -46 14 -44 29 -124 52 -149 43 -20 -8 -16 -52 11
-110 27 -58 78 -97 139 -108 20 -4 37 -10 37 -14 0 -3 -21 -18 -45 -33 -26
-16 -45 -35 -45 -45 -1 -10 -2 -67 -3 -126 l-2 -109 33 -29 c19 -17 32 -32 30
-34 -9 -8 -102 -35 -123 -35 -19 0 -26 7 -31 28 -4 15 -12 33 -18 41 -20 25
-89 49 -175 61 -46 6 -112 23 -147 37 -57 24 -65 31 -74 62 -16 60 -13 69 28
80 20 6 40 11 45 11 4 0 28 10 53 21 32 15 51 33 65 61 21 42 18 58 -10 58
-11 0 -24 -12 -31 -30 -13 -32 -51 -53 -122 -69 l-37 -9 6 32 c14 83 89 197
160 244 21 13 24 12 41 -9 21 -25 59 -20 48 6 -3 8 -8 21 -11 28 -10 23 53 36
150 33 74 -2 100 -7 146 -29z m-28 -81 c34 -14 80 -60 90 -88 8 -23 -7 -23
-60 1 -38 18 -73 61 -73 91 0 13 4 13 43 -4z m207 -85 c14 -28 13 -38 -7 -44
-10 -2 -26 -8 -35 -12 -15 -6 -18 -1 -18 34 0 37 2 41 25 41 14 0 29 -8 35
-19z m38 -201 c-8 -142 -75 -243 -140 -210 -56 30 -58 35 -53 144 4 81 9 104
23 114 16 12 17 7 20 -62 2 -49 8 -78 17 -86 27 -22 35 0 35 91 l0 90 42 19
43 19 8 -22 c5 -12 7 -56 5 -97z m-983 -370 l0 -245 -47 -3 -48 -3 0 251 0
251 48 -3 47 -3 0 -245z m295 201 c42 -17 100 -33 130 -36 116 -14 180 -42
180 -79 0 -3 -67 -6 -149 -6 -154 0 -205 -9 -221 -40 -15 -28 -12 -87 4 -93
20 -8 36 13 36 45 0 15 1 29 3 30 1 1 108 4 238 7 l236 6 147 73 c81 39 154
72 162 72 9 0 14 -11 14 -32 -1 -29 -9 -39 -66 -81 -35 -26 -62 -52 -59 -57 4
-6 -4 -10 -16 -10 -13 0 -44 -18 -70 -40 -26 -22 -51 -40 -55 -40 -4 0 -30
-11 -58 -24 -76 -37 -294 -68 -514 -74 l-182 -4 2 178 3 178 65 28 c36 15 72
27 80 28 8 0 49 -13 90 -29z"/>
<path d="M583 974 c-7 -18 11 -39 26 -30 17 11 13 46 -4 46 -9 0 -18 -7 -22
-16z"/>
</g>
</svg>
