<?xml version="1.0" standalone="no"?>
<!DOCTYPE svg PUBLIC "-//W3C//DTD SVG 20010904//EN"
 "http://www.w3.org/TR/2001/REC-SVG-20010904/DTD/svg10.dtd">
<svg version="1.0" xmlns="http://www.w3.org/2000/svg"
 width="128.000000pt" height="128.000000pt" viewBox="0 0 128.000000 128.000000"
 preserveAspectRatio="xMidYMid meet">

<g transform="translate(0.000000,128.000000) scale(0.100000,-0.100000)"
fill="#000000" stroke="none">
<path d="M705 1230 c-53 -44 -65 -49 -108 -50 -65 0 -93 -15 -217 -114 l-105
-85 -52 6 c-50 5 -54 4 -88 -30 -28 -28 -35 -43 -35 -74 0 -46 12 -66 127
-208 103 -129 139 -153 198 -133 49 17 80 58 79 106 -1 33 4 41 41 70 42 32
42 32 161 32 136 0 168 -11 217 -72 61 -76 43 -202 -39 -264 l-37 -29 -303 -5
c-263 -4 -306 -7 -320 -21 -13 -13 -14 -21 -5 -38 11 -20 19 -21 151 -21 l140
0 0 -35 0 -35 -117 0 c-147 -1 -190 -10 -225 -50 -24 -26 -28 -39 -28 -93 0
-36 5 -68 12 -75 9 -9 120 -12 440 -12 427 0 427 0 439 21 18 34 6 124 -21
161 -22 30 -22 31 -4 41 37 19 112 107 137 161 119 251 -29 539 -301 587 -39
7 -61 16 -59 23 2 6 30 32 63 59 32 26 60 57 62 68 4 25 -102 159 -126 159 -9
-1 -44 -23 -77 -50z m93 -117 c-27 -29 -38 -29 -62 4 l-19 26 29 24 29 23 22
-27 22 -27 -21 -23z m-125 -43 c36 -40 38 -107 5 -144 -30 -33 -211 -177 -219
-173 -10 3 -142 168 -137 171 1 2 46 37 99 79 52 42 109 83 125 92 42 23 93
13 127 -25z m-426 -182 c16 -18 65 -77 107 -130 83 -105 95 -140 46 -146 -21
-2 -40 17 -127 127 -57 71 -103 136 -103 144 0 14 24 36 41 37 3 0 19 -15 36
-32z m678 -21 c209 -105 248 -389 77 -549 -74 -69 -136 -88 -287 -88 l-125 0
0 34 0 34 128 4 c106 3 134 7 168 25 135 71 186 223 120 356 -47 98 -135 147
-261 147 l-56 0 33 35 c32 34 35 35 93 31 39 -2 78 -12 110 -29z m23 -729 c7
-7 12 -22 12 -35 l0 -23 -375 0 c-405 0 -393 -2 -365 51 10 18 25 19 363 19
261 0 356 -3 365 -12z"/>
</g>
</svg>
