<?xml version="1.0" standalone="no"?>
<!DOCTYPE svg PUBLIC "-//W3C//DTD SVG 20010904//EN"
 "http://www.w3.org/TR/2001/REC-SVG-20010904/DTD/svg10.dtd">
<svg version="1.0" xmlns="http://www.w3.org/2000/svg"
 width="128.000000pt" height="128.000000pt" viewBox="0 0 128.000000 128.000000"
 preserveAspectRatio="xMidYMid meet">

<g transform="translate(0.000000,128.000000) scale(0.100000,-0.100000)"
fill="#000000" stroke="none">
<path d="M184 940 c-41 -16 -64 -59 -64 -116 0 -45 5 -59 29 -86 27 -31 34
-33 94 -34 40 0 72 -6 82 -14 14 -12 18 -12 26 1 12 20 11 27 -7 37 -13 7 -14
13 -5 30 14 27 14 104 0 136 -21 45 -100 68 -155 46z m96 -50 c14 -14 20 -33
20 -64 0 -50 -10 -62 -39 -46 -25 13 -38 -4 -21 -25 10 -12 9 -15 -9 -15 -36
0 -61 35 -61 85 0 52 25 85 65 85 14 0 34 -9 45 -20z"/>
<path d="M490 825 l0 -125 25 0 c25 0 25 1 25 87 0 103 11 100 35 -9 15 -70
19 -78 40 -78 20 0 25 10 46 93 l24 92 3 -92 c3 -91 3 -93 27 -93 l25 0 0 125
0 125 -39 0 -38 0 -18 -67 c-29 -112 -29 -112 -65 25 -10 40 -12 42 -50 42
l-40 0 0 -125z"/>
<path d="M905 925 c-46 -45 -27 -88 49 -110 66 -19 83 -36 61 -59 -29 -28 -95
-11 -95 25 0 5 -11 9 -25 9 -24 0 -25 -1 -12 -32 17 -42 51 -60 105 -55 54 6
82 30 82 72 0 40 -21 59 -85 77 -38 10 -50 18 -50 33 0 30 60 34 75 6 14 -27
50 -28 50 -2 0 56 -110 82 -155 36z"/>
<path d="M110 390 c0 -93 1 -100 20 -100 19 0 20 7 20 100 0 93 -1 100 -20
100 -19 0 -20 -7 -20 -100z"/>
<path d="M212 474 c-25 -17 -29 -56 -8 -73 7 -6 31 -17 52 -25 48 -16 51 -40
6 -44 -22 -2 -34 2 -38 12 -7 18 -44 22 -44 6 0 -23 50 -60 80 -60 30 0 80 37
80 58 0 21 -40 56 -74 66 -21 6 -38 16 -39 21 -3 14 43 19 56 6 14 -14 47 -14
47 -1 0 20 -41 50 -68 50 -15 0 -38 -7 -50 -16z"/>
<path d="M393 466 c-24 -21 -28 -32 -28 -76 0 -44 4 -55 28 -76 18 -15 41 -24
62 -24 21 0 44 9 62 24 24 21 28 32 28 76 0 44 -4 55 -28 76 -18 15 -41 24
-62 24 -21 0 -44 -9 -62 -24z m99 -33 c22 -20 23 -51 2 -81 -29 -41 -94 -16
-94 36 0 53 54 79 92 45z"/>
<path d="M590 470 c-24 -24 -26 -58 -4 -89 13 -18 23 -22 45 -17 30 6 37 -6
19 -34 -7 -12 -12 -12 -34 0 -29 15 -42 9 -32 -15 8 -21 31 -29 62 -21 52 13
70 131 27 178 -21 24 -58 23 -83 -2z m60 -25 c16 -19 3 -57 -18 -53 -18 3 -27
30 -18 54 7 18 20 18 36 -1z"/>
<path d="M744 469 c-27 -30 -27 -128 0 -158 24 -27 58 -27 82 0 14 15 19 36
19 79 0 43 -5 64 -19 79 -24 27 -58 27 -82 0z m60 -25 c9 -23 7 -97 -3 -113
-5 -8 -16 -11 -25 -8 -12 5 -16 20 -16 65 0 32 3 62 7 65 11 12 31 7 37 -9z"/>
<path d="M894 469 c-27 -30 -27 -128 0 -158 24 -27 58 -27 82 0 14 15 19 36
19 79 0 43 -5 64 -19 79 -24 27 -58 27 -82 0z m60 -25 c9 -23 7 -97 -3 -113
-5 -8 -16 -11 -25 -8 -12 5 -16 20 -16 65 0 32 3 62 7 65 11 12 31 7 37 -9z"/>
<path d="M1063 461 c-18 -15 -33 -36 -33 -45 0 -17 2 -17 25 -2 l25 16 0 -70
c0 -63 2 -70 20 -70 19 0 20 7 20 100 0 112 -4 117 -57 71z"/>
</g>
</svg>
