<?xml version="1.0" standalone="no"?>
<!DOCTYPE svg PUBLIC "-//W3C//DTD SVG 20010904//EN"
 "http://www.w3.org/TR/2001/REC-SVG-20010904/DTD/svg10.dtd">
<svg version="1.0" xmlns="http://www.w3.org/2000/svg"
 width="128.000000pt" height="128.000000pt" viewBox="0 0 128.000000 128.000000"
 preserveAspectRatio="xMidYMid meet">

<g transform="translate(0.000000,128.000000) scale(0.100000,-0.100000)"
fill="#000000" stroke="none">
<path d="M572 1235 c-34 -35 -42 -49 -34 -57 9 -9 17 -6 35 10 13 12 26 22 30
22 3 0 7 -30 9 -67 2 -42 8 -68 16 -71 9 -3 12 15 12 67 0 39 3 71 7 71 4 0
17 -10 30 -22 17 -16 26 -19 34 -11 8 8 -1 24 -31 57 -23 25 -47 46 -53 46 -5
0 -30 -20 -55 -45z"/>
<path d="M213 1250 c-32 -13 -63 -68 -63 -113 0 -57 25 -103 68 -123 32 -15
41 -15 76 -3 51 18 77 54 79 110 4 105 -70 165 -160 129z m74 -30 c83 -30 64
-180 -23 -180 -49 0 -74 29 -74 86 0 53 13 82 43 94 12 5 22 9 23 9 1 1 15 -4
31 -9z"/>
<path d="M947 1086 c-8 -20 1 -26 42 -26 l35 0 -47 -48 c-46 -47 -58 -72 -35
-72 7 0 34 21 60 47 l48 47 0 -37 c0 -27 4 -37 15 -37 13 0 15 12 13 68 l-3
67 -61 3 c-46 2 -63 -1 -67 -12z"/>
<path d="M525 1014 c-27 -9 -80 -17 -117 -18 -63 -1 -69 -3 -105 -39 l-39 -37
-39 40 c-22 22 -49 40 -61 40 -48 0 -87 -14 -115 -42 l-29 -30 0 -188 0 -189
27 -21 c17 -13 35 -19 49 -16 20 5 23 2 28 -36 3 -24 7 -124 9 -223 2 -114 8
-188 16 -202 15 -29 56 -39 95 -25 20 8 34 8 40 2 16 -16 62 -11 87 9 23 18
24 27 27 149 l4 130 66 -31 c60 -29 76 -32 158 -32 85 1 97 3 167 38 292 144
294 549 4 692 -89 44 -192 55 -272 29z m257 -62 c77 -38 130 -92 166 -171 22
-46 27 -71 27 -141 0 -76 -3 -92 -33 -152 -38 -77 -92 -130 -171 -167 -47 -22
-70 -26 -146 -26 -80 0 -97 3 -150 30 l-60 30 -3 81 -3 81 33 -1 c20 -1 39 -9
47 -20 21 -28 91 -56 144 -56 131 0 226 123 193 251 -15 56 -59 109 -112 134
-41 19 -120 19 -158 0 -37 -20 -36 -21 -36 23 -1 20 -7 55 -15 77 -8 21 -13
40 -12 41 19 14 78 23 142 21 68 -2 91 -7 147 -35z m-567 -32 c21 -22 44 -40
50 -40 6 0 29 18 50 41 37 38 43 40 85 36 76 -8 80 -21 80 -223 0 -152 -2
-175 -16 -181 -9 -3 -24 -2 -33 4 -13 8 -17 32 -19 122 -2 88 -6 111 -17 111
-11 0 -15 -19 -17 -82 l-3 -83 -107 -3 -108 -3 0 70 c0 78 -6 101 -26 101 -10
0 -14 -26 -16 -111 -2 -92 -6 -114 -20 -122 -12 -8 -21 -7 -32 2 -13 11 -16
40 -16 172 0 166 7 199 44 217 45 22 80 14 121 -28z m457 -120 c52 -15 94 -53
113 -105 59 -153 -129 -288 -254 -183 -21 18 -26 29 -20 43 4 11 8 64 8 118 1
79 4 97 16 97 8 0 15 4 15 10 0 5 15 14 33 19 43 12 46 12 89 1z m-301 -335
c0 -66 -4 -182 -7 -258 -6 -120 -9 -139 -25 -148 -14 -7 -23 -5 -39 11 -19 19
-20 33 -20 240 0 189 -2 220 -15 220 -13 0 -15 -32 -15 -224 0 -185 -3 -227
-15 -239 -18 -18 -53 -11 -59 12 -3 9 -8 128 -12 264 l-6 248 107 -3 107 -3
-1 -120z"/>
<path d="M1160 717 c0 -8 10 -22 21 -33 21 -19 21 -19 -47 -24 -52 -4 -69 -9
-69 -20 0 -11 17 -16 69 -20 68 -5 68 -5 47 -24 -23 -21 -28 -46 -8 -46 18 0
87 72 87 91 0 18 -70 89 -88 89 -7 0 -12 -6 -12 -13z"/>
<path d="M930 328 c0 -7 21 -34 47 -60 l47 -48 -36 0 c-40 0 -51 -9 -39 -29 5
-8 27 -11 67 -9 l59 3 3 68 c2 55 0 67 -13 67 -11 0 -15 -10 -15 -37 l0 -37
-48 47 c-47 46 -72 58 -72 35z"/>
<path d="M617 203 c-4 -3 -7 -35 -7 -70 0 -67 -6 -75 -35 -43 -23 25 -35 25
-35 1 0 -18 71 -91 88 -91 4 0 28 20 52 45 34 35 41 48 32 57 -9 9 -17 7 -35
-10 -13 -12 -26 -22 -30 -22 -4 0 -7 32 -7 70 0 64 -6 81 -23 63z"/>
</g>
</svg>
