<?xml version="1.0" standalone="no"?>
<!DOCTYPE svg PUBLIC "-//W3C//DTD SVG 20010904//EN"
 "http://www.w3.org/TR/2001/REC-SVG-20010904/DTD/svg10.dtd">
<svg version="1.0" xmlns="http://www.w3.org/2000/svg"
 width="128.000000pt" height="128.000000pt" viewBox="0 0 128.000000 128.000000"
 preserveAspectRatio="xMidYMid meet">

<g transform="translate(0.000000,128.000000) scale(0.100000,-0.100000)"
fill="#000000" stroke="none">
<path d="M162 1268 c-17 -17 -17 -1239 0 -1256 17 -17 939 -17 956 0 17 17 17
1239 0 1256 -17 17 -939 17 -956 0z m718 -98 l0 -50 -335 0 -335 0 0 43 c0 24
3 47 7 50 3 4 154 7 335 7 l328 0 0 -50z m188 -2 l3 -48 -60 0 -61 0 0 50 0
51 58 -3 57 -3 3 -47z m-668 -221 l0 -103 -30 -11 c-17 -6 -34 -23 -40 -38
-14 -36 -13 -128 2 -143 17 -17 599 -17 616 0 15 15 16 107 2 143 -6 15 -23
32 -40 38 l-30 11 0 103 0 103 95 0 95 0 0 -310 0 -310 -55 0 -55 0 0 53 c0
29 -5 58 -12 65 -17 17 -599 17 -616 0 -7 -7 -12 -36 -12 -65 l0 -53 -55 0
-55 0 0 310 0 310 95 0 95 0 0 -103z m90 -3 c0 -80 -3 -105 -12 -102 -9 3 -14
36 -16 106 -2 86 0 102 13 102 12 0 15 -17 15 -106z m230 1 l0 -105 -80 0 -80
0 0 105 0 105 80 0 80 0 0 -105z m98 3 c-2 -70 -7 -103 -15 -106 -10 -3 -13
22 -13 102 0 89 3 106 15 106 13 0 15 -16 13 -102z m72 -208 l0 -40 -250 0
-250 0 0 40 0 40 250 0 250 0 0 -40z m0 -275 l0 -35 -250 0 -250 0 0 35 0 35
250 0 250 0 0 -35z m175 -250 l0 -150 -425 0 -425 0 -3 140 c-1 76 0 145 2
152 4 11 87 13 428 11 l423 -3 0 -150z"/>
<path d="M281 1176 c-12 -14 -5 -26 16 -26 15 0 18 26 4 34 -5 3 -14 0 -20 -8z"/>
<path d="M351 1176 c-12 -14 -5 -26 16 -26 15 0 18 26 4 34 -5 3 -14 0 -20 -8z"/>
<path d="M421 1176 c-12 -14 -5 -26 16 -26 15 0 18 26 4 34 -5 3 -14 0 -20 -8z"/>
<path d="M837 753 c-4 -3 -7 -12 -7 -20 0 -15 26 -18 34 -4 7 11 -18 33 -27
24z"/>
<path d="M267 323 c-13 -12 -7 -41 9 -47 9 -3 53 -6 99 -6 87 0 121 14 109 45
-5 12 -28 15 -108 15 -57 0 -106 -3 -109 -7z"/>
<path d="M264 235 c-15 -38 2 -45 104 -45 76 0 102 4 112 15 10 12 10 18 0 30
-10 11 -36 15 -112 15 -78 0 -100 -3 -104 -15z"/>
<path d="M272 158 c-18 -18 -15 -36 7 -48 21 -11 142 -14 178 -4 28 8 36 30
17 49 -19 19 -183 22 -202 3z"/>
</g>
</svg>
